<svg width="925" height="900" viewBox="0 0 925 900" fill="none" xmlns="http://www.w3.org/2000/svg">
<path d="M242.5 375C343.7 296.6 565.333 44.3333 663.5 -72H701C804.833 -83.5 1015.4 -105.4 1027 -101C1041.5 -95.5 1056 54.5 1056 69C1056 83.5 1053 127 868.5 242C684 357 874 804.5 525.5 856.5C177 908.5 116 473 242.5 375Z" fill="#FF7200" fill-opacity="0.27"/>
<path d="M73.7705 458.083C192.047 349.466 493.327 69.4757 620.905 -67.2419H669.64C804.582 -80.757 1078.24 -106.494 1093.31 -101.323C1112.16 -94.8597 1131 81.4238 1131 98.4646C1131 115.505 1127.1 166.628 887.324 301.778C647.547 436.929 894.472 962.841 441.559 1023.95C-11.3537 1085.06 -77.5 597 73.7705 458.083Z" fill="#FF7200" fill-opacity="0.27"/>
</svg>
